<svg width="41" height="40" viewBox="0 0 41 40" fill="none" xmlns="http://www.w3.org/2000/svg">
<g clip-path="url(#clip0_1_2)">
<path d="M0.5 31V9C0.5 8.6875 0.5625 8.375 0.6875 8.125C0.8125 7.8125 1 7.5625 1.1875 7.375C1.4375 7.125 1.6875 7 1.9375 6.875C2.25 6.75 2.5 6.6875 2.8125 6.6875H38.125C38.4375 6.6875 38.75 6.75 39 6.875C39.3125 7 39.5625 7.1875 39.75 7.375C40 7.625 40.125 7.875 40.25 8.125C40.375 8.4375 40.4375 8.6875 40.4375 9V30.9375C40.4375 31.25 40.375 31.5625 40.25 31.8125C40.125 32.125 39.9375 32.375 39.75 32.5625C39.5 32.8125 39.25 32.9375 39 33.0625C38.6875 33.1875 38.4375 33.25 38.125 33.25H2.875C2.5625 33.25 2.25 33.1875 2 33.0625C1.6875 32.9375 1.4375 32.75 1.25 32.5625C1 32.3125 0.875 32.0625 0.75 31.8125C0.5625 31.5625 0.5 31.3125 0.5 31Z" fill="#0A0A0A"/>
<path d="M25.375 17C25.8125 18.5625 26.4375 21.0625 26.875 22.625C27.5 25.0625 27.6875 25.5625 28.25 26.125C28.625 26.5 29.0625 26.75 29.375 26.75C30 26.75 30.75 26.125 31.0625 25.4375C31.25 24.9375 34.0625 14.5625 34.0625 14.3125C34.0625 14.25 33.5 14.1875 32.875 14.25L31.625 14.3125L30.5 18.5C29.8125 21.1875 29.375 22.5625 29.3125 22.3125C29.125 21.875 27.1875 14.375 27.1875 14.3125C27.1875 14.25 26.625 14.25 25.9375 14.25H24.6875L25.375 17ZM17.375 14.75C17 15.25 16.9375 15.5 16.9375 20.5625V25.8125L17.4375 26.3125C17.875 26.8125 18 26.8125 20.5625 26.8125H23.1875V24.6875L21.1875 24.625L19.25 24.5V21.5625L20.5 21.5L21.6875 21.4375V19.3125H19.125V16.375H23.25V14.1875H20.5C17.8125 14.1875 17.75 14.1875 17.375 14.75ZM12.875 16.75C13.3125 17.125 13.375 17.1875 13.375 20.375C13.375 23.4375 13.375 23.625 12.9375 24.0625C12.625 24.375 12.25 24.5 11.5625 24.5H10.625L10.5625 20.4375L10.5 16.375H11.4375C12.125 16.375 12.5625 16.5 12.875 16.75ZM8.3125 20.5V26.75H10.5C12.9375 26.75 14 26.4375 14.6875 25.5C15.4375 24.5625 15.5625 23.75 15.5 20C15.4375 16.6875 15.375 16.4375 15 15.75C14.25 14.5625 13.4375 14.25 10.6875 14.25H8.3125V20.5Z" fill="white"/>
</g>
<defs>
<clipPath id="clip0_1_2">
<rect width="40" height="40" fill="white" transform="translate(0.5)"/>
</clipPath>
</defs>
</svg>
