<svg width="40" height="40" viewBox="0 0 40 40" fill="none" xmlns="http://www.w3.org/2000/svg">
<path d="M14.2999 35.7779C17.2222 35.7779 19.5944 33.4056 19.5944 30.4834V25.189H14.2999C11.3777 25.189 9.00549 27.5612 9.00549 30.4834C9.00549 33.4056 11.3777 35.7779 14.2999 35.7779Z" fill="#0ACF83"/>
<path d="M9 19.8889C9 16.9667 11.3722 14.5945 14.2944 14.5945H19.5889V25.1889H14.2944C11.3722 25.1889 9 22.8167 9 19.8945V19.8889Z" fill="#A259FF"/>
<path d="M9 9.29444C9 6.37222 11.3722 4 14.2944 4H19.5889V14.5944H14.2944C11.3722 14.5944 9 12.2222 9 9.3V9.29444Z" fill="#F24E1E"/>
<path d="M19.5444 4H24.8389C27.7611 4 30.1333 6.37222 30.1333 9.29444C30.1333 12.2167 27.7611 14.5889 24.8389 14.5889H19.5444V4Z" fill="#FF7262"/>
<path d="M30.1889 19.8889C30.1889 22.8111 27.8167 25.1834 24.8944 25.1834C21.9722 25.1834 19.5444 22.8111 19.5444 19.8889C19.5444 16.9667 21.9167 14.5945 24.8389 14.5945C27.7611 14.5945 30.1333 16.9667 30.1333 19.8889H30.1889Z" fill="#1ABCFE"/>
</svg>
