<svg width="41" height="40" viewBox="0 0 41 40" fill="none" xmlns="http://www.w3.org/2000/svg">
<g clip-path="url(#clip0_1_18)">
<mask id="mask0_1_18" style="mask-type:luminance" maskUnits="userSpaceOnUse" x="-4" y="-3" width="49" height="49">
<path d="M-3.47571 -2.22573H44.6985V45.8135H-3.47571V-2.22573Z" fill="white"/>
</mask>
<g mask="url(#mask0_1_18)">
<path d="M31.8837 33.5822C31.8837 35.7461 26.8571 37.5002 20.6565 37.5002C14.4558 37.5002 9.4292 35.7461 9.4292 33.5822C9.4292 31.4182 14.4556 29.6634 20.6565 29.6634C26.8573 29.6634 31.8837 31.4204 31.8837 33.5822" fill="#A0DCF2"/>
</g>
<mask id="mask1_1_18" style="mask-type:luminance" maskUnits="userSpaceOnUse" x="14" y="32" width="13" height="11">
<path d="M23.6723 33.4345C23.7488 33.1868 23.7615 32.8047 22.9947 32.9777C22.9947 32.9777 20.8993 33.2762 20.7994 35.7139L20.7517 40.3844H20.2481L20.2006 35.7139C20.1007 33.2764 18.0055 32.9777 18.0055 32.9777C17.241 32.8047 17.251 33.1863 17.3275 33.4341C16.5759 32.1579 14.5633 32.3229 14.5633 32.3229C13.8646 32.5714 14.5134 33.0191 14.5134 33.0191C15.6107 33.4167 15.711 34.611 15.711 34.611V37.9849L15.827 40.5932C16.0761 41.7551 16.691 42.4419 17.2941 42.8462L23.718 42.8389C24.495 42.3129 25.2897 41.3163 25.2897 39.4345V34.611C25.2897 34.611 25.3894 33.4167 26.4873 33.0191C26.4873 33.0191 27.1354 32.5711 26.4371 32.3229C26.4371 32.3229 26.3519 32.3163 26.2103 32.3158C25.6628 32.3158 24.27 32.4203 23.6727 33.4345M17.6072 38.2429V34.5617C17.6072 34.202 17.5436 33.8996 17.4348 33.6453C18.1574 34.2071 18.2058 35.6147 18.2058 35.6147V40.2096C17.4866 39.7021 17.6072 38.2422 17.6072 38.2422M22.7971 35.6141C22.7971 35.6141 22.8455 34.2063 23.5679 33.6447C23.4593 33.8989 23.3957 34.2014 23.3957 34.561V38.2424C23.3957 38.2424 23.5161 39.5991 22.7971 40.1578V35.6141Z" fill="white"/>
</mask>
<g mask="url(#mask1_1_18)">
<path d="M31.8837 33.5822C31.8837 35.7461 26.8571 37.5002 20.6565 37.5002C14.4558 37.5002 9.4292 35.7461 9.4292 33.5822C9.4292 31.4182 14.4556 29.6634 20.6565 29.6634C26.8573 29.6634 31.8837 31.4204 31.8837 33.5822" fill="#82BDE7"/>
</g>
<mask id="mask2_1_18" style="mask-type:luminance" maskUnits="userSpaceOnUse" x="-4" y="-3" width="49" height="49">
<path d="M-3.47571 -2.22573H44.6985V45.8135H-3.47571V-2.22573Z" fill="white"/>
</mask>
<g mask="url(#mask2_1_18)">
<path d="M7.83183 22.0607L7.50777 23.1867C7.50777 23.1867 7.42347 23.5937 7.80797 23.6658C8.20942 23.658 8.17664 23.2832 8.14853 23.1618L7.83183 22.0607Z" fill="#A0DCF2"/>
<path d="M40.4703 17.3398L40.5 17.1935C37.2063 16.5367 33.8265 16.53 31.7795 16.6148C32.1154 15.408 32.2167 14.0193 32.2167 12.4707C32.2167 10.2498 31.3799 8.47302 30.0214 7.12103C30.2589 6.35707 30.5761 4.65991 29.7047 2.48769C29.7047 2.48769 28.1658 2.00107 24.6919 4.32097C23.3301 3.98158 21.8809 3.81389 20.4294 3.81389C18.8325 3.81389 17.2189 4.01672 15.7139 4.42839C12.1262 1.98751 10.5427 2.48747 10.5427 2.48747C9.50878 5.06735 10.148 6.97335 10.342 7.44752C9.12696 8.75525 8.38516 10.4242 8.38516 12.4705C8.38516 14.0155 8.5618 15.4013 8.99269 16.6059C6.93035 16.5312 3.67346 16.5598 0.4953 17.193L0.52474 17.3394C3.71963 16.7022 6.99659 16.6799 9.04444 16.7573C9.13922 17.0064 9.24516 17.2466 9.36337 17.4824C7.33648 17.5475 3.87597 17.8049 0.559309 18.7381L0.599901 18.8815C3.94266 17.9414 7.4335 17.6903 9.44076 17.6294C10.6518 19.8801 13.0393 21.3342 17.2869 21.7883C16.6838 22.1922 16.0692 22.879 15.8194 24.0413C14.998 24.4327 12.3975 25.3895 10.8369 22.7135C10.8369 22.7135 9.96354 21.1211 8.29172 20.9966C8.29172 20.9966 6.6703 20.9743 8.17953 22.0041C8.17953 22.0041 9.26501 22.514 10.0135 24.4283C10.0135 24.4283 10.9904 27.6965 15.7034 26.6479V30.0239C15.7034 30.0239 15.6037 31.2183 14.5057 31.6159C14.5057 31.6159 13.8572 32.0638 14.5557 32.312C14.5557 32.312 17.5989 32.5611 17.5989 30.0735V26.3923C17.5989 26.3923 17.4785 24.9322 18.1973 24.4249V30.4759C18.1973 30.4759 18.1478 31.9186 17.3993 32.4659C17.3993 32.4659 16.9004 33.3611 17.9979 33.1127C17.9979 33.1127 20.0931 32.8142 20.193 30.3765L20.2407 24.2575H20.7441L20.792 30.3765C20.8917 32.814 22.9871 33.1127 22.9871 33.1127C24.0844 33.3611 23.5855 32.4659 23.5855 32.4659C22.8372 31.9188 22.7875 30.4759 22.7875 30.4759V24.4814C23.5063 25.0374 23.3861 26.3968 23.3861 26.3968V30.078C23.3861 32.5654 26.4291 32.3165 26.4291 32.3165C27.1272 32.0681 26.4793 31.6204 26.4793 31.6204C25.3815 31.22 25.2816 30.0284 25.2816 30.0284V25.2029C25.2816 23.3214 24.4869 22.3246 23.7099 21.7986C28.2374 21.3506 30.4133 19.8921 31.4151 17.6258C33.3992 17.6801 36.9699 17.9212 40.3853 18.8824L40.4259 18.739C37.0299 17.7837 33.483 17.5366 31.4787 17.4784C31.5737 17.2493 31.6564 17.0113 31.73 16.7667C33.7607 16.6777 37.1559 16.6811 40.4625 17.3405" fill="#292929"/>
<path d="M27.788 12.3639C28.7637 13.2453 29.3345 14.31 29.3345 15.4565C29.3345 20.8108 25.3315 20.9561 20.3944 20.9561C15.4572 20.9561 11.4538 20.217 11.4538 15.4587C11.4538 14.3195 12.0167 13.2618 12.9804 12.3839C14.5876 10.921 17.3081 11.6956 20.3939 11.6956C23.4677 11.6956 26.1779 10.9132 27.7873 12.3662" fill="#F5CDB5"/>
<path d="M17.4214 15.7317C17.4214 17.2062 16.5886 18.4019 15.5613 18.4019C14.534 18.4019 13.7008 17.2064 13.7008 15.7317C13.7008 14.2569 14.534 13.0619 15.5613 13.0619C16.5886 13.0619 17.4214 14.2569 17.4214 15.7317Z" fill="white"/>
<path d="M16.8244 15.7652C16.8244 16.7483 16.2668 17.5449 15.5843 17.5449C14.9019 17.5449 14.3443 16.7483 14.3443 15.7652C14.3443 14.7822 14.8992 13.9847 15.5843 13.9847C16.2695 13.9847 16.8244 14.7818 16.8244 15.7652Z" fill="#B1645A"/>
<path d="M27.401 15.7317C27.401 17.2062 26.5683 18.4019 25.5405 18.4019C24.5128 18.4019 23.6805 17.2064 23.6805 15.7317C23.6805 14.2569 24.5135 13.0619 25.5405 13.0619C26.5676 13.0619 27.401 14.2569 27.401 15.7317Z" fill="white"/>
<path d="M26.804 15.7652C26.804 16.7482 26.2464 17.5448 25.564 17.5448C24.8815 17.5448 24.3239 16.7482 24.3239 15.7652C24.3239 14.7821 24.8815 13.9846 25.564 13.9846C26.2464 13.9846 26.804 14.7817 26.804 15.7652ZM20.8857 18.1004C20.8857 18.3566 20.6774 18.5643 20.4205 18.5643C20.1636 18.5643 19.9553 18.3566 19.9553 18.1004C19.9553 17.8442 20.1633 17.6365 20.4205 17.6365C20.6776 17.6365 20.8857 17.8442 20.8857 18.1004ZM19.3368 19.2736C19.3302 19.2551 19.3274 19.2355 19.3285 19.216C19.3295 19.1964 19.3344 19.1772 19.3429 19.1596C19.3513 19.1419 19.3632 19.126 19.3778 19.1129C19.3924 19.0998 19.4095 19.0897 19.428 19.0832C19.4465 19.0767 19.4662 19.0739 19.4858 19.0749C19.5054 19.0759 19.5246 19.0808 19.5424 19.0893C19.5601 19.0977 19.576 19.1096 19.5891 19.1241C19.6022 19.1387 19.6124 19.1557 19.6189 19.1742C19.7385 19.5111 20.059 19.7375 20.4167 19.7375C20.7744 19.7375 21.0947 19.5111 21.2147 19.1742C21.2212 19.1557 21.2314 19.1387 21.2445 19.1242C21.2576 19.1096 21.2735 19.0978 21.2912 19.0893C21.3089 19.0809 21.3282 19.076 21.3478 19.075C21.3674 19.074 21.387 19.0768 21.4055 19.0833C21.424 19.0899 21.441 19.0999 21.4556 19.113C21.4702 19.1261 21.4821 19.142 21.4906 19.1596C21.499 19.1773 21.5039 19.1965 21.505 19.216C21.506 19.2356 21.5032 19.2551 21.4966 19.2736C21.4162 19.4949 21.2694 19.6861 21.0762 19.8212C20.883 19.9563 20.6527 20.0288 20.4167 20.0288C20.1807 20.0288 19.9504 19.9563 19.7572 19.8212C19.564 19.6861 19.4172 19.4949 19.3368 19.2736Z" fill="#B1645A"/>
<path d="M9.02281 21.3969C9.02281 21.5207 8.8774 21.6206 8.69831 21.6206C8.51921 21.6206 8.37402 21.5205 8.37402 21.3969C8.37402 21.2732 8.51899 21.1727 8.69831 21.1727C8.87762 21.1727 9.02281 21.2728 9.02281 21.3969ZM9.92117 21.8939C9.92117 22.0178 9.77576 22.1181 9.59667 22.1181C9.41757 22.1181 9.27238 22.018 9.27238 21.8939C9.27238 21.7698 9.41735 21.6702 9.59667 21.6702C9.77598 21.6702 9.92117 21.7703 9.92117 21.8939ZM10.4703 22.5389C10.4703 22.6623 10.3253 22.7626 10.1458 22.7626C9.96623 22.7626 9.8217 22.6626 9.8217 22.5389C9.8217 22.4152 9.96667 22.3147 10.1458 22.3147C10.3249 22.3147 10.4703 22.4148 10.4703 22.5389ZM10.9687 23.2855C10.9687 23.4094 10.8238 23.5097 10.6447 23.5097C10.4656 23.5097 10.3202 23.4096 10.3202 23.2855C10.3202 23.1614 10.4651 23.0613 10.6447 23.0613C10.8242 23.0613 10.9687 23.1614 10.9687 23.2855ZM11.5178 23.9845C11.5178 24.108 11.3729 24.2083 11.1936 24.2083C11.0142 24.2083 10.869 24.1082 10.869 23.9845C10.869 23.8609 11.0145 23.7603 11.1936 23.7603C11.3726 23.7603 11.5178 23.8604 11.5178 23.9845ZM12.2665 24.5812C12.2665 24.7051 12.1216 24.8054 11.942 24.8054C11.7625 24.8054 11.618 24.7053 11.618 24.5812C11.618 24.4571 11.7629 24.3575 11.942 24.3575C12.1211 24.3575 12.2665 24.4576 12.2665 24.5812Z" fill="#C5E6DA"/>
<path d="M13.3143 24.9796C13.3143 25.1031 13.1693 25.2034 12.99 25.2034C12.8107 25.2034 12.6655 25.1033 12.6655 24.9796C12.6655 24.856 12.8105 24.7554 12.99 24.7554C13.1696 24.7554 13.3143 24.8555 13.3143 24.9796Z" fill="#C5E6DA"/>
<path d="M14.3572 24.9796C14.3572 25.1031 14.2123 25.2034 14.0329 25.2034C13.8536 25.2034 13.7084 25.1033 13.7084 24.9796C13.7084 24.856 13.8534 24.7554 14.0329 24.7554C14.2125 24.7554 14.3572 24.8555 14.3572 24.9796Z" fill="#C5E6DA"/>
<path d="M15.4157 24.8063C15.4157 24.9302 15.2707 25.0305 15.0914 25.0305C14.9121 25.0305 14.7669 24.9304 14.7669 24.8063C14.7669 24.6822 14.9119 24.5822 15.0914 24.5822C15.271 24.5822 15.4157 24.6822 15.4157 24.8063Z" fill="#C5E6DA"/>
</g>
</g>
<defs>
<clipPath id="clip0_1_18">
<rect width="40" height="40" fill="white" transform="translate(0.5)"/>
</clipPath>
</defs>
</svg>
