<svg width="41" height="40" viewBox="0 0 41 40" fill="none" xmlns="http://www.w3.org/2000/svg">
<g clip-path="url(#clip0_1_46)">
<path d="M2.16687 2.16699H38.8337V37.8339H2.16687V2.16699Z" fill="#261300"/>
<path d="M0.5 0.5V39.5H40.5V0.5H0.5ZM2.16688 2.16688H38.8337V37.8338H2.16688V2.16688ZM14.3831 22.5831L13.0663 27.5831C13.0331 27.7163 12.9831 27.75 12.8162 27.75H10.3663C10.1994 27.75 10.1663 27.7 10.1994 27.5L14.9325 10.9331C15.0156 10.6331 15.0656 10.3662 15.0994 9.55C15.0994 9.43312 15.1494 9.38312 15.2325 9.38312H18.7325C18.8494 9.38312 18.8994 9.41625 18.9325 9.55L24.2325 27.5331C24.2656 27.6663 24.2325 27.75 24.0994 27.75H21.3325C21.1994 27.75 21.1156 27.7169 21.0825 27.6L19.6994 22.5831H14.3831ZM19.0162 19.8831L17.0331 12.05H17C16.65 14 15.7669 17.3 15.0669 19.8831H19.0162ZM26.5162 10.6163C26.5162 9.54938 27.2663 8.91625 28.2163 8.91625C29.2331 8.91625 29.9163 9.59938 29.9163 10.6163C29.9163 11.7163 29.1994 12.3163 28.1831 12.3163C27.2162 12.3163 26.5162 11.7163 26.5162 10.6163ZM26.7162 14.3994C26.7162 14.2663 26.7662 14.1994 26.9162 14.1994H29.5331C29.6662 14.1994 29.7331 14.2494 29.7331 14.3994V27.5494C29.7331 27.6825 29.7 27.7494 29.5331 27.7494H26.95C26.7831 27.7494 26.7331 27.6662 26.7331 27.5325V14.4L26.7162 14.3994Z" fill="#FF7C00"/>
</g>
<defs>
<clipPath id="clip0_1_46">
<rect width="40" height="40" fill="white" transform="translate(0.5)"/>
</clipPath>
</defs>
</svg>
