<svg width="39" height="40" viewBox="0 0 39 40" fill="none" xmlns="http://www.w3.org/2000/svg">
<g clip-path="url(#clip0_1_57)">
<path d="M13.9297 1.25594C7.80869 1.70886 2.60512 2.12539 2.36046 2.17417C1.6745 2.2965 1.05047 2.76181 0.757043 3.37422L0.5 3.91308L0.524775 16.7559L0.561164 29.5988L0.952922 30.3947C1.17358 30.8352 2.66706 32.8923 4.29525 35.0099C7.51526 39.1845 7.74753 39.4175 8.97158 39.5398C9.32695 39.5762 11.9957 39.4539 14.8851 39.2828C17.7869 39.0993 22.4385 38.8175 25.2303 38.6588C37.1542 37.9349 36.5417 37.996 37.2269 37.4084C38.084 36.6984 38.0228 37.8613 38.0592 22.2522C38.084 9.01755 38.0716 8.14887 37.8757 7.74472C37.6435 7.2918 37.2269 6.97359 31.7911 3.15356C28.1553 0.607137 27.8983 0.472422 26.2693 0.447647C25.5965 0.423646 20.0384 0.790629 13.9297 1.25594ZM27.69 2.93291C28.2041 3.16518 31.963 5.78516 32.5135 6.28763C32.6606 6.43473 32.7093 6.55706 32.6358 6.63061C32.4647 6.77772 9.20307 8.16126 8.53027 8.06293C8.22445 8.01415 7.77153 7.83066 7.51448 7.65878C6.44915 6.93643 3.80517 4.76937 3.80517 4.61066C3.80517 4.19412 3.71923 4.19412 14.0892 3.44777C16.0728 3.31306 19.3292 3.0684 21.3127 2.90891C25.6089 2.56593 26.8949 2.57832 27.69 2.93291ZM35.0847 9.62996C35.2558 9.80107 35.4029 10.1317 35.4516 10.4499C35.488 10.7441 35.5128 16.2287 35.488 22.6191C35.4516 33.5884 35.4392 34.2743 35.231 34.5925C35.1087 34.7884 34.864 34.9967 34.6797 35.0579C34.1664 35.2661 9.79148 36.6497 9.28978 36.5026C9.05752 36.4414 8.73853 36.2455 8.56743 36.0744L8.27322 35.7562L8.23684 23.9299C8.21206 15.6294 8.23684 11.9565 8.33516 11.6259C8.40871 11.3813 8.59221 11.0871 8.7517 10.9895C8.97235 10.8424 10.4171 10.7201 15.3876 10.4266C18.877 10.2308 24.2757 9.90017 27.3734 9.71668C34.7417 9.26298 34.7177 9.26298 35.0847 9.62996Z" fill="black"/>
<path d="M28.5347 13.6824C27.2123 13.7683 26.0371 13.8906 25.9024 13.9642C25.4982 14.1724 25.2536 14.5154 25.2048 14.9072C25.1684 15.3113 25.2907 15.3601 26.6123 15.5196L27.1876 15.5931V20.8207C27.1876 23.93 27.1388 25.9871 27.0776 25.926C27.0165 25.8524 25.2783 23.2084 23.2088 20.0496C21.1401 16.8791 19.426 14.2708 19.4012 14.2468C19.3764 14.222 18.03 14.2955 16.4142 14.4063C14.4307 14.541 13.3413 14.6633 13.1207 14.7856C12.7653 14.9691 12.3735 15.6179 12.3735 16.0468C12.3735 16.3039 12.8388 16.4386 13.8182 16.4386H14.3323V31.4725L13.5 31.7295C12.8512 31.9254 12.6306 32.0478 12.5206 32.2924C12.3248 32.7089 12.3371 33.0883 12.533 33.0883C12.6066 33.0883 13.9901 33.0024 15.5812 32.9048C18.7276 32.7213 19.0822 32.6354 19.4128 31.9866C19.5111 31.7907 19.5963 31.5824 19.5963 31.5213C19.5963 31.4725 19.1681 31.3254 18.6533 31.2031C18.1268 31.0807 17.6003 30.9584 17.4904 30.9336C17.2821 30.8725 17.2697 30.4931 17.2697 25.2284V19.5843L20.9914 25.4243C24.8966 31.5453 25.3867 32.2436 25.9867 32.5495C26.7339 32.9412 28.6315 32.6718 29.5861 32.0478L29.8803 31.8643L29.9051 23.515L29.9415 15.1534L30.5903 15.0311C31.3614 14.884 31.7168 14.5294 31.7168 13.9169C31.7168 13.5252 31.692 13.5004 31.325 13.5128C31.1059 13.5229 29.8447 13.5964 28.5347 13.6824Z" fill="black"/>
</g>
<defs>
<clipPath id="clip0_1_57">
<rect width="37.584" height="40" fill="white" transform="translate(0.5)"/>
</clipPath>
</defs>
</svg>
