<svg width="40" height="40" viewBox="0 0 40 40" fill="none" xmlns="http://www.w3.org/2000/svg">
<path d="M2.5 15.1666C2.5 10.7329 2.5 8.51604 3.36286 6.82257C4.12186 5.33296 5.33296 4.12186 6.82257 3.36286C8.51604 2.5 10.7329 2.5 15.1666 2.5H24.8334C29.2671 2.5 31.484 2.5 33.1774 3.36286C34.667 4.12186 35.8781 5.33296 36.6371 6.82257C37.5 8.51604 37.5 10.7329 37.5 15.1666V24.8334C37.5 29.2671 37.5 31.484 36.6371 33.1774C35.8781 34.667 34.667 35.8781 33.1774 36.6371C31.484 37.5 29.2671 37.5 24.8334 37.5H15.1666C10.7329 37.5 8.51604 37.5 6.82257 36.6371C5.33296 35.8781 4.12186 34.667 3.36286 33.1774C2.5 31.484 2.5 29.2671 2.5 24.8334V15.1666Z" fill="#001E36"/>
<path d="M10 28.1452V12.7542C10 12.6496 10.0437 12.5898 10.1458 12.5898C11.6529 12.5898 13.1593 12.5 14.6666 12.5C17.1128 12.5 19.7613 13.3364 20.6896 15.8952C20.9084 16.5235 21.025 17.1666 21.025 17.8398C21.025 19.1261 20.7334 20.188 20.15 21.0256C18.5205 23.3654 15.6963 23.329 13.1646 23.329V28.1304C13.1844 28.2725 13.0632 28.3398 12.9459 28.3398H10.175C10.0583 28.3398 10 28.2799 10 28.1452ZM13.1791 15.4765V20.5021C14.183 20.5756 15.2334 20.5836 16.1979 20.2629C17.2627 19.9556 17.8459 19.034 17.8459 17.9295C17.8754 16.9884 17.3626 16.0854 16.4896 15.7457C15.5367 15.3495 14.2077 15.3257 13.1791 15.4765Z" fill="#31A8FF"/>
<path d="M30.1209 19.5093C29.6797 19.2766 29.2097 19.1065 28.7238 19.0035C28.0995 18.8566 25.6373 18.3421 25.6363 19.6296C25.6582 20.3484 26.7992 20.7005 27.3033 20.9059C29.0732 21.5135 31.0759 22.5996 31.0365 24.783C31.0907 27.501 28.4572 28.5876 26.1998 28.5879C25.0247 28.6 23.8004 28.418 22.7249 27.9135C22.6222 27.8591 22.5562 27.743 22.5605 27.6245V25.0238C22.5489 24.9195 22.6609 24.8284 22.7484 24.9034C23.8022 25.5406 25.0512 25.8501 26.2703 25.8666C26.8084 25.8666 27.8749 25.8145 27.8669 25.0238C27.8669 24.265 26.591 23.9161 26.0824 23.7234C25.3452 23.4603 24.6462 23.0956 24.0045 22.6398C23.1078 22.0001 22.5453 20.9746 22.5605 19.8464C22.5553 17.2871 24.9794 16.1384 27.1625 16.1379C28.183 16.1294 29.279 16.205 30.229 16.6195C30.3657 16.6596 30.3939 16.8036 30.3934 16.9325V19.3648C30.402 19.5158 30.2344 19.5671 30.1209 19.5093Z" fill="#31A8FF"/>
</svg>
