<svg width="40" height="40" viewBox="0 0 40 40" fill="none" xmlns="http://www.w3.org/2000/svg">
<path d="M31.8428 10.0431C28.0008 5.06708 21.5388 2.89708 15.4728 4.54308C9.40685 6.18908 4.92685 11.3301 4.12685 17.5651C3.32685 23.8001 6.36085 29.9051 11.8168 33.0291C17.2728 36.1531 24.0718 35.6851 29.0468 31.8411C35.8468 26.5931 37.0768 16.8351 31.8448 10.0441L31.8428 10.0431Z" fill="#FF6C37"/>
<path d="M24.7849 13.9031L18.2319 20.5081L16.3799 18.6041C22.8299 12.1541 23.4769 12.7371 24.7979 13.9041L24.7849 13.9031Z" fill="white"/>
<path d="M18.2309 20.6901C18.1729 20.6891 18.1179 20.6651 18.0759 20.6251L16.2109 18.7601C16.1239 18.6601 16.1239 18.5271 16.2109 18.4361C22.5569 12.0901 23.4379 12.3761 24.9409 13.7361C24.9909 13.7761 25.0209 13.8391 25.0189 13.9041C25.0289 13.9681 25.0039 14.0321 24.9539 14.0721L18.4009 20.6251C18.3549 20.6671 18.2949 20.6901 18.2329 20.6901H18.2309ZM16.7029 18.6181L18.2309 20.1461L24.4479 13.9291C24.2331 13.6604 23.9269 13.4801 23.5877 13.4228C23.2485 13.3654 22.9001 13.4349 22.6089 13.6181C21.4819 14.1361 19.6689 15.6641 16.7029 18.6181Z" fill="#FF6C37"/>
<path d="M20.1089 22.3351L18.3229 20.5231L24.8759 14.0471C26.6359 15.7701 24.0209 18.6451 20.1099 22.3371L20.1089 22.3351Z" fill="white"/>
<path d="M20.1089 22.5681C20.0519 22.5631 19.9969 22.5411 19.9539 22.5031L18.1409 20.7161C18.1139 20.6501 18.1139 20.5761 18.1409 20.5091C18.1209 20.4551 18.1209 20.3951 18.1409 20.3411L24.6939 13.7881C24.7889 13.6981 24.9359 13.6981 25.0309 13.7881C25.4609 14.1831 25.6969 14.7461 25.6789 15.3281C25.6789 17.0761 23.6839 19.2781 20.2909 22.4901C20.2459 22.5351 20.1859 22.5621 20.1229 22.5681H20.1089ZM18.6589 20.4961L20.1229 21.9601C22.7229 19.5001 25.1729 16.9871 25.1999 15.2771C25.2139 14.9141 25.0939 14.5591 24.8629 14.2801L18.6589 20.4961Z" fill="#FF6C37"/>
<path d="M16.4309 18.6431L17.7259 19.9381C17.7429 19.9531 17.7519 19.9741 17.7519 19.9961C17.7519 20.0181 17.7419 20.0401 17.7259 20.0541L15.0059 20.6371C14.9511 20.6479 14.8942 20.6407 14.8438 20.6167C14.7934 20.5926 14.752 20.553 14.7259 20.5036C14.6998 20.4543 14.6902 20.3978 14.6987 20.3426C14.7071 20.2874 14.7332 20.2364 14.7729 20.1971L16.3659 18.6171C16.3659 18.6171 16.4179 18.6171 16.4439 18.6431H16.4309Z" fill="white"/>
<path d="M14.9288 20.8981C14.7528 20.8961 14.5918 20.8031 14.5018 20.6521C14.4516 20.5582 14.4333 20.4505 14.4497 20.3453C14.4661 20.2402 14.5164 20.1432 14.5928 20.0691L16.1728 18.4761C16.2297 18.4251 16.3034 18.3968 16.3798 18.3968C16.4562 18.3968 16.5299 18.4251 16.5868 18.4761L17.8818 19.7711C17.9588 19.8441 17.9888 19.9541 17.9598 20.0561C17.9308 20.1581 17.8448 20.2391 17.7398 20.2631L15.0198 20.8461L14.9288 20.8981ZM16.3788 18.9281L14.9148 20.3921L17.3368 19.8741L16.3788 18.9281Z" fill="#FF6C37"/>
<path d="M28.2689 10.2651C27.3319 9.36309 25.8609 9.32509 24.8689 10.1791C23.8769 11.0331 23.7189 12.4941 24.4809 13.5491C25.2429 14.6041 26.6889 14.8991 27.8059 14.2291L26.0459 12.4691L28.2689 10.2651Z" fill="white"/>
<path d="M26.5198 14.8231C25.4198 14.8091 24.4328 14.1381 24.0158 13.1191C23.5988 12.1001 23.8298 10.9311 24.6038 10.1471C25.1219 9.63744 25.8196 9.35182 26.5463 9.35182C27.2731 9.35182 27.9707 9.63744 28.4888 10.1471C28.5134 10.1677 28.5332 10.1935 28.5468 10.2226C28.5603 10.2517 28.5674 10.2835 28.5674 10.3156C28.5674 10.3477 28.5603 10.3794 28.5468 10.4085C28.5332 10.4376 28.5134 10.4634 28.4888 10.4841L26.3908 12.4661L27.9838 14.0201C28.0096 14.0447 28.0289 14.0753 28.0402 14.1091C28.0516 14.1429 28.0545 14.1789 28.0488 14.2141C28.0408 14.2841 28.0028 14.3441 27.9448 14.3821C27.5168 14.6498 27.0245 14.7973 26.5198 14.8091V14.8231ZM26.5198 9.79808C26.0709 9.80071 25.6327 9.93581 25.2602 10.1865C24.8878 10.4371 24.5976 10.7921 24.4261 11.207C24.2546 11.6219 24.2094 12.0782 24.2961 12.5187C24.3829 12.9592 24.5978 13.3642 24.9138 13.6831C25.5738 14.3451 26.5698 14.5351 27.4268 14.1631L25.8988 12.6351C25.8488 12.5951 25.8208 12.5351 25.8208 12.4731C25.8208 12.4111 25.8508 12.3501 25.8988 12.3111L27.9188 10.2781C27.5172 9.9701 27.0259 9.80188 26.5198 9.79908V9.79808Z" fill="#FF6C37"/>
<path d="M28.3078 10.3031L26.1058 12.5051L27.8658 14.2651C28.0431 14.1632 28.2082 14.0415 28.3578 13.9021C28.8197 13.414 29.0739 12.7656 29.0666 12.0937C29.0593 11.4218 28.7912 10.779 28.3188 10.3011L28.3078 10.3031Z" fill="white"/>
<path d="M27.8149 14.4611C27.7549 14.4641 27.6989 14.4411 27.6599 14.3961L25.8999 12.6361C25.8499 12.5961 25.8219 12.5361 25.8219 12.4741C25.8219 12.4121 25.8519 12.3511 25.8999 12.3121L28.1019 10.1491C28.1449 10.0841 28.2179 10.0451 28.2959 10.0451C28.3739 10.0451 28.4459 10.0851 28.4899 10.1491C28.7483 10.4023 28.9535 10.7046 29.0936 11.0381C29.2338 11.3717 29.3059 11.7298 29.3059 12.0916C29.3059 12.4534 29.2338 12.8115 29.0936 13.1451C28.9535 13.4786 28.7483 13.7808 28.4899 14.0341C28.3379 14.1961 28.1629 14.3341 27.9719 14.4481C27.9239 14.4721 27.8679 14.4781 27.8169 14.4611H27.8149ZM26.3899 12.4661L27.8539 13.9301C27.9539 13.8601 28.0499 13.7821 28.1389 13.6971C28.3519 13.4847 28.521 13.2323 28.6365 12.9545C28.752 12.6767 28.8116 12.3789 28.8119 12.0781C28.8123 11.5346 28.6142 11.0098 28.2549 10.6021L26.3899 12.4661Z" fill="#FF6C37"/>
<path d="M25.0569 14.1761C24.6929 13.8341 24.1269 13.8341 23.7619 14.1761L17.8949 20.0301L18.8649 21.0141L25.0819 15.5741C25.1766 15.4834 25.2517 15.3743 25.3026 15.2536C25.3535 15.1328 25.3791 15.0028 25.3779 14.8718C25.3767 14.7407 25.3487 14.6113 25.2955 14.4914C25.2424 14.3716 25.1652 14.264 25.0689 14.1751L25.0569 14.1761Z" fill="white"/>
<path d="M18.8129 21.2471C18.7549 21.2461 18.6999 21.2221 18.6579 21.1821L17.6739 20.1981C17.5869 20.0981 17.5869 19.9651 17.6739 19.8741L23.5409 14.0461C23.7096 13.8765 23.9254 13.7617 24.1604 13.7166C24.3953 13.6715 24.6383 13.6983 24.8578 13.7934C25.0773 13.8885 25.263 14.0475 25.3907 14.2498C25.5185 14.452 25.5823 14.688 25.5739 14.9271C25.5609 15.2541 25.4159 15.5621 25.1739 15.7821L18.9569 21.2221C18.9119 21.2541 18.8566 21.268 18.8019 21.2611L18.8129 21.2471ZM18.1269 20.0301L18.7749 20.6781L24.8619 15.3781C24.9367 15.3136 24.9972 15.2342 25.0395 15.145C25.0819 15.0558 25.1052 14.9588 25.1079 14.8601C25.1159 14.6601 25.0349 14.4651 24.8879 14.3301C24.6049 14.0481 24.1479 14.0481 23.8649 14.3301L18.1269 20.0301Z" fill="#FF6C37"/>
<path d="M13.3488 26.7001C13.3322 26.7225 13.3232 26.7497 13.3232 26.7776C13.3232 26.8055 13.3322 26.8327 13.3488 26.8551L13.6088 27.9821C13.6308 28.1161 13.5668 28.2501 13.4488 28.3171C13.3308 28.3841 13.1818 28.3691 13.0788 28.2801L11.3048 26.5801L16.8348 21.0101H18.7518L20.0468 22.3051C18.0268 24.0721 15.7738 25.5531 13.3508 26.7091L13.3488 26.7001Z" fill="white"/>
<path d="M13.2328 28.6031C13.0858 28.6001 12.9468 28.5401 12.8428 28.4351L11.1588 26.7511C11.1088 26.7111 11.0808 26.6511 11.0808 26.5891C11.0808 26.5271 11.1108 26.4661 11.1588 26.4271L16.7288 20.8571C16.7601 20.8238 16.801 20.8011 16.8458 20.7921H18.7888C18.8388 20.7741 18.8938 20.7741 18.9438 20.7921L20.2388 22.0871C20.2888 22.1331 20.3128 22.2011 20.3038 22.2671C20.3058 22.3321 20.2768 22.3951 20.2258 22.4351L20.1218 22.5251C18.0931 24.2164 15.8612 25.6478 13.4778 26.7861L13.7378 27.8221C13.7778 27.9861 13.7398 28.1591 13.6378 28.2921C13.5358 28.4251 13.3778 28.5051 13.2078 28.5081L13.2328 28.6031ZM11.6528 26.5701L13.1808 28.1241C13.2108 28.1501 13.2548 28.1501 13.2848 28.1241C13.3048 28.0971 13.3048 28.0601 13.2848 28.0341L13.0248 26.9071C12.9828 26.7401 13.0648 26.5671 13.2188 26.4931C15.5382 25.3702 17.7128 23.9699 19.6948 22.3231L18.6228 21.2601H16.8868L11.6528 26.5701Z" fill="#FF6C37"/>
<path d="M9.96785 27.9031L11.2628 26.6081L13.2578 28.6031L10.0848 28.3831C10.0305 28.3785 9.97902 28.357 9.93759 28.3216C9.89616 28.2862 9.86692 28.2386 9.85398 28.1857C9.84105 28.1327 9.84508 28.0771 9.86552 28.0265C9.88595 27.976 9.92175 27.9322 9.96785 27.9031Z" fill="white"/>
<path d="M13.2968 28.7981L10.1368 28.5781C10.0445 28.5703 9.95616 28.5365 9.88224 28.4805C9.80831 28.4245 9.75178 28.3487 9.71921 28.2619C9.68664 28.1751 9.67937 28.0808 9.69825 27.9901C9.71713 27.8993 9.76137 27.8157 9.82585 27.7491L11.1208 26.4541C11.2208 26.3671 11.3538 26.3671 11.4448 26.4541L13.4268 28.4361C13.4542 28.4737 13.469 28.519 13.469 28.5656C13.469 28.6121 13.4542 28.6575 13.4268 28.6951C13.3968 28.7431 13.3508 28.7791 13.2968 28.7981ZM10.1368 28.0731L12.7368 28.2411L11.3118 26.9071L10.1368 28.0731Z" fill="#FF6C37"/>
<path d="M18.9308 21.1571L16.3148 21.5471L17.8298 20.0451L18.9308 21.1571Z" fill="white"/>
<path d="M16.3148 21.8031C16.2713 21.8043 16.2285 21.7926 16.1916 21.7695C16.1548 21.7463 16.1256 21.7128 16.1078 21.6731C16.0804 21.6355 16.0657 21.5901 16.0657 21.5436C16.0657 21.497 16.0804 21.4517 16.1078 21.4141L17.6098 19.8991C17.7048 19.8091 17.8518 19.8091 17.9468 19.8991L19.0468 20.9991C19.0686 21.034 19.0802 21.0744 19.0802 21.1156C19.0802 21.1568 19.0686 21.1971 19.0468 21.2321C19.0369 21.275 19.0144 21.3139 18.9821 21.3439C18.9499 21.3738 18.9093 21.3934 18.8658 21.4001L16.2658 21.7901L16.3148 21.8031ZM17.8298 20.3781L16.9878 21.2201L18.4378 21.0001L17.8298 20.3781Z" fill="#FF6C37"/>
<path d="M18.9309 21.1571L17.1179 21.3901C17.0179 21.4131 16.9139 21.3671 16.8629 21.2781C16.8119 21.1891 16.8259 21.0761 16.8969 21.0021L17.8419 20.0571L18.9309 21.1571Z" fill="white"/>
</svg>
