<svg width="40" height="40" viewBox="0 0 40 40" fill="none" xmlns="http://www.w3.org/2000/svg">
<g clip-path="url(#clip0_1_161)">
<path d="M39.759 31.6026C39.759 31.6026 38.4213 32.3717 36.766 32.0707C36.4485 32.0206 36.1477 31.9036 35.8466 31.7531C38.3211 28.4424 39.7923 24.3457 39.7923 19.898C39.7923 8.91228 30.8808 0 19.8962 0C8.91148 0 0 8.91228 0 19.898C0 30.8835 8.91148 39.7959 19.8962 39.7959C23.3739 39.7959 26.6342 38.893 29.4765 37.3378C30.4128 38.3244 31.7168 39.361 33.3052 39.6789C36.2979 40.2475 38.4717 38.8762 39.3578 37.0371C40.1101 35.4316 40.1602 33.5256 39.759 31.6026ZM19.8795 31.3852C13.5595 31.3852 8.40992 26.2352 8.40992 19.9147C8.40992 13.5941 13.5595 8.4441 19.8795 8.4441C26.1994 8.4441 31.3657 13.5774 31.3657 19.898C31.3657 21.8376 30.8808 23.6769 30.0115 25.2821C29.7607 24.9644 29.5434 24.6635 29.3929 24.4628C28.8077 23.6602 28.2058 22.8409 27.6206 22.0048C26.8515 20.918 25.0792 18.7442 22.6382 18.276C19.6454 17.7075 17.4719 19.0786 16.5857 20.918C15.8334 22.5232 15.7832 24.4294 16.1678 26.3355C16.1678 26.3355 17.5053 25.5664 19.1605 25.8674C20.3643 26.0847 21.5013 27.0044 22.9559 28.8103C23.0729 28.9607 23.5745 29.6296 24.2433 30.4991C22.9057 31.0676 21.4344 31.3852 19.8795 31.3852Z" fill="black"/>
</g>
<defs>
<clipPath id="clip0_1_161">
<rect width="40" height="40" fill="white"/>
</clipPath>
</defs>
</svg>
