<svg width="40" height="40" viewBox="0 0 40 40" fill="none" xmlns="http://www.w3.org/2000/svg">
<g clip-path="url(#clip0_1_100)">
<path fill-rule="evenodd" clip-rule="evenodd" d="M11.1111 25.1937C11.1111 22.8635 12.8731 20.9876 15.0617 20.9876C17.2504 20.9876 19.0123 22.8635 19.0123 25.1937V35.547C19.0123 37.8771 17.2504 39.7531 15.0617 39.7531C12.8731 39.7531 11.1111 37.8771 11.1111 35.547V25.1937Z" fill="#E01E5A" stroke="#E01E5A" stroke-width="0.790123" stroke-linecap="round" stroke-linejoin="round"/>
<path fill-rule="evenodd" clip-rule="evenodd" d="M25.1937 28.8889C22.8636 28.8889 20.9877 27.1269 20.9877 24.9383C20.9877 22.7496 22.8636 20.9876 25.1937 20.9876H35.5471C37.8772 20.9876 39.7531 22.7496 39.7531 24.9383C39.7531 27.1269 37.8772 28.8889 35.5471 28.8889H25.1937Z" fill="#ECB22D" stroke="#ECB22D" stroke-width="0.790123" stroke-linecap="round" stroke-linejoin="round"/>
<path fill-rule="evenodd" clip-rule="evenodd" d="M20.9877 4.45293C20.9877 2.12281 22.7496 0.24691 24.9383 0.24691C27.1269 0.24691 28.8889 2.12281 28.8889 4.45293V14.8063C28.8889 17.1364 27.1269 19.0123 24.9383 19.0123C22.7496 19.0123 20.9877 17.1364 20.9877 14.8063V4.45293Z" fill="#2FB67C" stroke="#2FB67C" stroke-width="0.790123" stroke-linecap="round" stroke-linejoin="round"/>
<path fill-rule="evenodd" clip-rule="evenodd" d="M4.45294 19.0123C2.12282 19.0123 0.246918 17.2504 0.246918 15.0617C0.246918 12.8731 2.12282 11.1111 4.45294 11.1111H14.8063C17.1364 11.1111 19.0123 12.8731 19.0123 15.0617C19.0123 17.2504 17.1364 19.0123 14.8063 19.0123H4.45294Z" fill="#36C5F1" stroke="#36C5F1" stroke-width="0.790123" stroke-linecap="round" stroke-linejoin="round"/>
<path fill-rule="evenodd" clip-rule="evenodd" d="M20.9876 35.8025C20.9865 36.3216 21.088 36.8358 21.2861 37.3156C21.4843 37.7954 21.7752 38.2314 22.1423 38.5984C22.5094 38.9655 22.9453 39.2565 23.4251 39.4546C23.9049 39.6528 24.4192 39.7542 24.9383 39.7531C27.1269 39.7531 28.8889 37.9911 28.8889 35.8025C28.89 35.2833 28.7886 34.7691 28.5904 34.2893C28.3923 33.8095 28.1013 33.3736 27.7342 33.0065C27.3672 32.6394 26.9312 32.3485 26.4514 32.1503C25.9716 31.9522 25.4574 31.8507 24.9383 31.8518H20.9876V35.8025Z" fill="#ECB22D" stroke="#ECB22D" stroke-width="0.790123" stroke-linecap="round"/>
<path fill-rule="evenodd" clip-rule="evenodd" d="M35.8025 19.0123H31.8519V15.0617C31.8519 12.8731 33.6138 11.1111 35.8025 11.1111C37.9911 11.1111 39.7531 12.8731 39.7531 15.0617C39.7531 17.2504 37.9911 19.0123 35.8025 19.0123Z" fill="#2FB67C" stroke="#2FB67C" stroke-width="0.790123" stroke-linecap="round"/>
<path fill-rule="evenodd" clip-rule="evenodd" d="M4.19754 20.9876H8.14816V24.9383C8.14816 27.1269 6.38618 28.8889 4.19754 28.8889C3.67843 28.89 3.16421 28.7886 2.6844 28.5904C2.20459 28.3923 1.76864 28.1013 1.40157 27.7342C1.0345 27.3672 0.743541 26.9312 0.545395 26.4514C0.34725 25.9716 0.24582 25.4574 0.246927 24.9383C0.246927 22.7496 2.0089 20.9876 4.19754 20.9876Z" fill="#E01E5A" stroke="#E01E5A" stroke-width="0.790123" stroke-linecap="round"/>
<path fill-rule="evenodd" clip-rule="evenodd" d="M19.0124 4.19753V8.14814H15.0617C14.5426 8.14925 14.0284 8.04782 13.5486 7.84968C13.0688 7.65153 12.6328 7.36057 12.2658 6.9935C11.8987 6.62643 11.6077 6.19048 11.4096 5.71067C11.2114 5.23086 11.11 4.71664 11.1111 4.19753C11.1111 2.00889 12.8731 0.246911 15.0617 0.246911C15.5809 0.245805 16.0951 0.347235 16.5749 0.54538C17.0547 0.743525 17.4906 1.03448 17.8577 1.40155C18.2248 1.76862 18.5157 2.20457 18.7139 2.68438C18.912 3.16419 19.0135 3.67841 19.0124 4.19753Z" fill="#36C5F1" stroke="#36C5F1" stroke-width="0.790123" stroke-linecap="round"/>
</g>
<defs>
<clipPath id="clip0_1_100">
<rect width="40" height="40" fill="white"/>
</clipPath>
</defs>
</svg>
