<svg width="40" height="40" viewBox="0 0 40 40" fill="none" xmlns="http://www.w3.org/2000/svg">
<path fill-rule="evenodd" clip-rule="evenodd" d="M31.4969 19.6985C31.4969 19.356 31.2437 19.1585 30.9331 19.2566L9.56375 26.0329C9.2525 26.1316 9 26.4897 9 26.8316V33.7572C9 34.0997 9.2525 34.2979 9.56375 34.1991L30.9331 27.4235C31.2437 27.3247 31.4969 26.9666 31.4969 26.6241V19.6985Z" fill="url(#paint0_linear_1_162)"/>
<path fill-rule="evenodd" clip-rule="evenodd" d="M9 19.4779C9 19.8204 9.2525 20.1785 9.56375 20.2773L30.9362 27.0541C31.2475 27.1529 31.5 26.9548 31.5 26.6129V19.6866C31.5 19.3448 31.2475 18.9866 30.9362 18.8879L9.56375 12.111C9.2525 12.0123 9 12.2098 9 12.5523V19.4779Z" fill="#FF9800"/>
<path fill-rule="evenodd" clip-rule="evenodd" d="M31.4969 5.46726C31.4969 5.12476 31.2437 4.92664 30.9331 5.02539L9.56375 11.801C9.2525 11.8998 9 12.2579 9 12.6004V19.526C9 19.8685 9.2525 20.066 9.56375 19.9679L30.9331 13.1916C31.2437 13.0929 31.4969 12.7348 31.4969 12.3929V5.46726Z" fill="#FF9800"/>
<defs>
<linearGradient id="paint0_linear_1_162" x1="21.3996" y1="29.6579" x2="23.9314" y2="23.4638" gradientUnits="userSpaceOnUse">
<stop stop-color="#FF9700"/>
<stop offset="0.53" stop-color="#F48E00"/>
<stop offset="1" stop-color="#D06F00"/>
</linearGradient>
</defs>
</svg>
