<svg width="41" height="40" viewBox="0 0 41 40" fill="none" xmlns="http://www.w3.org/2000/svg">
<g clip-path="url(#clip0_1_110)">
<path d="M14.8489 0.912417C14.2995 0.636846 13.7195 0.427078 13.1209 0.287466C5.09029 -1.61863 -0.877997 6.25575 2.403 13.4114C2.43424 13.4427 8.24629 26.1917 9.18372 28.2228C9.18372 28.2228 19.8704 23.3169 22.0577 18.2861C24.0826 13.5989 20.6672 5.04334 20.0422 3.75907L14.8489 0.912417Z" fill="url(#paint0_linear_1_110)"/>
<path d="M38.9939 15.1332C38.3154 14.0932 37.3928 13.235 36.3066 12.6334C36.2753 12.6334 28.7759 8.50873 28.7759 8.50873C28.7759 8.50873 3.02793 23.4357 2.9998 23.4763C0.0937813 26.7885 -0.562417 32.0381 2.78107 36.6003C3.78908 37.9721 5.21423 38.9807 6.84325 39.4751C9.87427 40.4125 12.5616 40.0375 14.8114 38.8501C14.8739 38.8189 35.966 27.6322 36.0285 27.5697C40.15 25.4137 42.0593 19.9141 38.9939 15.1332Z" fill="#0CB0F2"/>
<path d="M12.5053 11.8553L5.63086 20.2922L2.96544 23.4763C0.0594185 26.7886 -0.59678 32.0381 2.74671 36.6003C3.75472 37.9722 5.17987 38.9807 6.80889 39.4751C9.8399 40.4125 12.5584 40.0375 14.8083 38.8501C14.8083 38.8501 15.3395 38.5689 16.2457 38.0689C19.1017 36.5253 23.042 26.148 25.7293 18.1236L12.5053 11.8553Z" fill="url(#paint1_linear_1_110)"/>
<path d="M23.3107 19.9765L28.7759 8.43682C28.7759 8.42853 28.7792 8.42058 28.7851 8.41472C28.7909 8.40886 28.7989 8.40557 28.8072 8.40557C28.8384 8.31183 29.2759 7.18691 29.3071 7.12442C29.6284 6.31373 29.7451 5.43641 29.647 4.56992C29.5489 3.70343 29.239 2.87442 28.7447 2.15606C28.1143 1.15807 27.1144 0.450281 25.9636 0.187461C24.9964 -0.069921 23.9749 -0.0384064 23.0253 0.278115C22.0758 0.594635 21.2397 1.1823 20.6203 1.96857C20.5891 1.99982 19.4017 3.37471 19.4017 3.37471L10.6523 14.1551L23.3107 19.9765Z" fill="url(#paint2_linear_1_110)"/>
<path d="M7.99628 7.47754H32.9943V32.4756H7.99628V7.47754Z" fill="url(#paint3_linear_1_110)"/>
<path d="M13.8708 13.0083H10.4961V10.821H19.6516V13.0083H16.3081V21.6295H13.8708V13.0083ZM19.6516 16.2487C19.6516 13.1239 21.9639 10.5929 25.3074 10.5929C27.3385 10.5929 28.5884 11.2803 29.5884 12.2803L28.0572 14.0301C27.2135 13.2802 26.3699 12.8115 25.2762 12.8115C23.4638 12.8115 22.1202 14.3426 22.1202 16.1862V16.2175C22.1202 18.0923 23.4013 19.6234 25.2762 19.6234C26.5261 19.6234 27.276 19.1235 28.1197 18.3423L29.6508 19.8734C28.5259 21.0608 27.3073 21.8108 25.2137 21.8108C24.4787 21.8274 23.748 21.6949 23.0656 21.4213C22.3833 21.1477 21.7635 20.7386 21.2436 20.2188C20.7238 19.6989 20.3147 19.0791 20.0411 18.3968C19.7675 17.7144 19.635 16.9837 19.6516 16.2487ZM10.4961 27.476H19.6516V29.1321H10.4961V27.476Z" fill="white"/>
</g>
<defs>
<linearGradient id="paint0_linear_1_110" x1="21.3515" y1="24.32" x2="8.74937" y2="8.7493" gradientUnits="userSpaceOnUse">
<stop offset="0.06" stop-color="#0CB0F2"/>
<stop offset="0.21" stop-color="#10ADF2"/>
<stop offset="0.37" stop-color="#1EA5F3"/>
<stop offset="0.54" stop-color="#3497F5"/>
<stop offset="0.71" stop-color="#5283F7"/>
<stop offset="0.88" stop-color="#796AF9"/>
<stop offset="0.97" stop-color="#905CFB"/>
</linearGradient>
<linearGradient id="paint1_linear_1_110" x1="7.03075" y1="37.9096" x2="13.3459" y2="23.3045" gradientUnits="userSpaceOnUse">
<stop offset="0.06" stop-color="#0CB0F2"/>
<stop offset="0.2" stop-color="#0DB2EE"/>
<stop offset="0.35" stop-color="#12B7E0"/>
<stop offset="0.51" stop-color="#19C0CA"/>
<stop offset="0.68" stop-color="#23CCAC"/>
<stop offset="0.85" stop-color="#30DC85"/>
<stop offset="0.97" stop-color="#3BEA62"/>
</linearGradient>
<linearGradient id="paint2_linear_1_110" x1="15.6926" y1="18.7173" x2="28.0354" y2="2.88413" gradientUnits="userSpaceOnUse">
<stop offset="0.06" stop-color="#0CB0F2"/>
<stop offset="0.2" stop-color="#0DB2EE"/>
<stop offset="0.35" stop-color="#12B7E0"/>
<stop offset="0.51" stop-color="#19C0CA"/>
<stop offset="0.68" stop-color="#23CCAC"/>
<stop offset="0.85" stop-color="#30DC85"/>
<stop offset="0.97" stop-color="#3BEA62"/>
</linearGradient>
<linearGradient id="paint3_linear_1_110" x1="20.4953" y1="7.78377" x2="20.4953" y2="32.7818" gradientUnits="userSpaceOnUse">
<stop/>
<stop offset="1"/>
</linearGradient>
<clipPath id="clip0_1_110">
<rect width="40" height="40" fill="white" transform="translate(0.5)"/>
</clipPath>
</defs>
</svg>
